<svg width="26" height="26" fill="none" xmlns="http://www.w3.org/2000/svg"><rect width="26" height="26" rx="12.974" fill="#419FD9"/><path fill-rule="evenodd" clip-rule="evenodd" d="M15.102 17.824c.679.297.933-.325.933-.325l1.796-9.023c-.014-.609-.834-.24-.834-.24L6.941 12.18s-.48.17-.438.467c.042.297.424.438.424.438l2.532.849s.763 2.503.919 2.984c.141.467.269.481.269.481.141.057.268-.042.268-.042l1.641-1.485 2.546 1.951Zm.438-7.75s.354-.212.34 0c0 0 .056.028-.128.226-.17.17-4.172 3.762-4.71 4.243a.148.148 0 0 0-.07.127L10.816 16c-.028.141-.212.155-.254.028l-.665-2.178a.208.208 0 0 1 .085-.24l5.558-3.536Z" fill="#fff"/></svg>