<svg width="26" height="26" fill="none" xmlns="http://www.w3.org/2000/svg"><rect width="26" height="26" rx="12.974" fill="#675DA9"/><path d="M17.646 8.234c-.314-.288-1.585-1.212-4.416-1.225 0 0-3.338-.202-4.965 1.29-.906.907-1.225 2.23-1.258 3.875-.033 1.642-.076 4.722 2.893 5.557h.002L9.9 19.004s-.018.516.321.62c.41.127.653-.266 1.045-.688.215-.233.511-.572.736-.833 2.03.17 3.591-.22 3.768-.278.41-.134 2.731-.43 3.108-3.51.39-3.168-.19-5.175-1.232-6.081Zm.344 5.858c-.32 2.571-2.2 2.733-2.546 2.844-.147.049-1.518.39-3.244.276 0 0-1.286 1.552-1.685 1.954-.064.063-.137.088-.185.076-.069-.018-.089-.099-.086-.218l.01-2.118c-.003 0-.003 0 0 0-2.513-.696-2.366-3.317-2.338-4.689.028-1.372.286-2.498 1.052-3.254 1.374-1.245 4.211-1.06 4.211-1.06 2.394.01 3.54.73 3.806.971.883.76 1.334 2.569 1.005 5.218Z" fill="#fff"/><path d="M14.396 12.265a.16.16 0 0 1-.159-.152c-.028-.544-.284-.81-.805-.837a.161.161 0 0 1 .018-.322c.688.038 1.073.433 1.108 1.142a.157.157 0 0 1-.152.167l-.01.002Z" fill="#fff"/><path d="M15.216 12.539h-.002a.161.161 0 0 1-.157-.165c.012-.547-.144-.99-.478-1.354-.332-.364-.79-.562-1.395-.605a.16.16 0 0 1-.146-.172.16.16 0 0 1 .171-.146c.684.05 1.223.288 1.607.708.388.423.575.952.562 1.577a.162.162 0 0 1-.162.157Z" fill="#fff"/><path d="M16.056 12.867a.159.159 0 0 1-.159-.159c-.008-.98-.288-1.726-.86-2.285-.565-.552-1.28-.833-2.123-.84a.16.16 0 0 1 0-.322c.928.008 1.718.32 2.343.932.627.612.949 1.457.959 2.51a.158.158 0 0 1-.16.164c.003 0 .003 0 0 0ZM13.47 14.246s.225.02.347-.129l.235-.296c.114-.146.39-.24.658-.09.15.083.42.25.587.374.18.131.544.435.547.438.175.146.215.362.096.592v.005a2.468 2.468 0 0 1-.49.605l-.006.002c-.17.142-.337.223-.498.24-.02.006-.043.006-.074.006a.689.689 0 0 1-.212-.033l-.005-.008c-.253-.07-.674-.248-1.372-.635a8.145 8.145 0 0 1-1.154-.762 5.884 5.884 0 0 1-.519-.46l-.017-.018a83137598133.226 83137598133.226 0 0 0-.036-.035l-.018-.018a6.351 6.351 0 0 1-.46-.519 8 8 0 0 1-.762-1.154c-.387-.7-.564-1.12-.635-1.371l-.008-.005a.69.69 0 0 1-.032-.213c0-.03 0-.053.005-.073.02-.165.1-.33.24-.499 0-.002.003-.002.003-.005.187-.207.39-.37.604-.49h.005c.228-.12.443-.08.592.095 0 0 .307.367.438.547.124.17.291.438.375.587.15.268.056.544-.091.658l-.296.235c-.15.122-.13.347-.13.347s.438 1.665 2.083 2.082Z" fill="#fff"/></svg>