<svg width="26" height="26" fill="none" xmlns="http://www.w3.org/2000/svg"><rect width="26" height="26" rx="12.974" fill="#0DC143"/><path d="M17.7 8.318A6.136 6.136 0 0 0 13.323 6.5c-3.463 0-6.246 2.795-6.212 6.195 0 1.078.305 2.122.814 3.065l-.882 3.198 3.293-.841c.916.505 1.934.74 2.953.74 3.428 0 6.212-2.794 6.212-6.195 0-1.65-.645-3.199-1.8-4.344Zm-4.378 9.496a5.075 5.075 0 0 1-2.614-.708l-.204-.1-1.969.505.51-1.92-.136-.202C7.415 13 8.128 9.833 10.572 8.352c2.444-1.482 5.601-.775 7.095 1.65 1.494 2.424.78 5.555-1.664 7.037a4.979 4.979 0 0 1-2.681.774Zm2.987-3.738-.373-.168s-.543-.236-.883-.404c-.034 0-.068-.034-.102-.034-.102 0-.17.034-.237.067 0 0-.034.034-.51.573a.187.187 0 0 1-.17.1h-.033a.259.259 0 0 1-.136-.067l-.17-.067c-.373-.168-.713-.37-.984-.64-.068-.067-.17-.134-.238-.202a3.767 3.767 0 0 1-.645-.808l-.034-.067c-.034-.034-.034-.068-.068-.135 0-.067 0-.135.034-.168 0 0 .136-.169.238-.27.068-.067.102-.168.17-.235.068-.101.101-.236.068-.337-.035-.168-.442-1.078-.544-1.28a.392.392 0 0 0-.237-.168h-.374c-.068 0-.136.034-.203.034l-.034.033c-.068.034-.136.101-.204.135-.068.068-.102.135-.17.202a1.708 1.708 0 0 0-.373 1.044c0 .27.068.539.17.774l.034.101a5.61 5.61 0 0 0 1.256 1.718l.135.134c.102.101.204.169.272.27a6.082 6.082 0 0 0 2.444 1.28c.102.033.238.033.34.066h.339c.17 0 .373-.067.51-.134.101-.068.169-.068.237-.135l.068-.067c.068-.068.136-.101.203-.168.068-.068.136-.135.17-.203.068-.134.102-.303.136-.47v-.237s-.034-.033-.102-.067Z" fill="#fff"/></svg>